<svg xmlns="http://www.w3.org/2000/svg" viewBox="0 0 1360 466" width="1360" height="466" font-family="Helvetica, Arial, sans-serif">
<rect width="1360" height="466" fill="#ffffff"/>
<text x="28" y="30" font-size="17" font-weight="bold" fill="#24292f" letter-spacing="1.1">THE 14-STAGE PIPELINE — the dependency graph, read from STAGE_DEPS</text>
<text x="28" y="50" font-size="14" fill="#57606a">Columns are dependency depth; an arrow points from a stage to one that needs it. Execution order is a topological sort, tie-broken by stage number so a run is reproducible.</text>
<text x="28" y="66" font-size="14" fill="#57606a">A stage that raises is recorded and skipped, its dependants are skipped with a stated reason, and the cycle completes and reports partial.</text>
<defs><marker id="d" viewBox="0 0 10 10" refX="9.5" refY="5" markerWidth="5" markerHeight="5" orient="auto-start-reverse"><path d="M 0 0 L 10 5 L 0 10 z" fill="#6e7781"/></marker>
<marker id="dr" viewBox="0 0 10 10" refX="9.5" refY="5" markerWidth="5.5" markerHeight="5.5" orient="auto-start-reverse"><path d="M 0 0 L 10 5 L 0 10 z" fill="#cf222e"/></marker></defs>
<path d="M132 140.0 h10 V322 H312 V140.0 H328" fill="none" stroke="#6e7781" stroke-width="1.15" marker-end="url(#d)"/>
<path d="M282 140.0 H328" fill="none" stroke="#6e7781" stroke-width="1.15" marker-end="url(#d)"/>
<path d="M132 140.0 H178" fill="none" stroke="#6e7781" stroke-width="1.15" marker-end="url(#d)"/>
<path d="M432 140.0 H478" fill="none" stroke="#6e7781" stroke-width="1.15" marker-end="url(#d)"/>
<path d="M282 140.0 h10 V337 H462 V140.0 H478" fill="none" stroke="#6e7781" stroke-width="1.15" marker-end="url(#d)"/>
<path d="M582 140.0 H628" fill="none" stroke="#6e7781" stroke-width="1.15" marker-end="url(#d)"/>
<path d="M732 140.0 H778" fill="none" stroke="#6e7781" stroke-width="1.15" marker-end="url(#d)"/>
<path d="M582 140.0 H605.0 V210.0 H628" fill="none" stroke="#6e7781" stroke-width="1.15" marker-end="url(#d)"/>
<path d="M882 140.0 H928" fill="none" stroke="#6e7781" stroke-width="1.15" marker-end="url(#d)"/>
<path d="M732 210.0 h10 V337 H912 V140.0 H928" fill="none" stroke="#6e7781" stroke-width="1.15" marker-end="url(#d)"/>
<path d="M432 210.0 h10 V322 H912 V140.0 H928" fill="none" stroke="#6e7781" stroke-width="1.15" marker-end="url(#d)"/>
<path d="M282 140.0 H305.0 V210.0 H328" fill="none" stroke="#6e7781" stroke-width="1.15" marker-end="url(#d)"/>
<path d="M882 140.0 h10 V352 H1062 V140.0 H1078" fill="none" stroke="#6e7781" stroke-width="1.15" marker-end="url(#d)"/>
<path d="M1032 140.0 H1078" fill="none" stroke="#6e7781" stroke-width="1.15" marker-end="url(#d)"/>
<path d="M432 210.0 h10 V367 H1062 V140.0 H1078" fill="none" stroke="#6e7781" stroke-width="1.15" marker-end="url(#d)"/>
<path d="M582 140.0 H605.0 V280.0 H628" fill="none" stroke="#6e7781" stroke-width="1.15" marker-end="url(#d)"/>
<path d="M432 210.0 h10 V382 H612 V280.0 H628" fill="none" stroke="#6e7781" stroke-width="1.15" marker-end="url(#d)"/>
<path d="M282 140.0 h10 V352 H762 V210.0 H778" fill="none" stroke="#6e7781" stroke-width="1.15" marker-end="url(#d)"/>
<path d="M732 280.0 H755.0 V210.0 H778" fill="none" stroke="#6e7781" stroke-width="1.15" marker-end="url(#d)"/>
<path d="M882 140.0 h10 V382 H1212 V140.0 H1228" fill="none" stroke="#6e7781" stroke-width="1.15" marker-end="url(#d)"/>
<path d="M1182 140.0 H1228" fill="none" stroke="#6e7781" stroke-width="1.15" marker-end="url(#d)"/>
<path d="M882 140.0 H905.0 V210.0 H928" fill="none" stroke="#6e7781" stroke-width="1.15" marker-end="url(#d)"/>
<path d="M628 210.0 h-14 V94 H530.0 V120" fill="none" stroke="#cf222e" stroke-width="1.3" stroke-dasharray="5 3" marker-end="url(#dr)"/>
<text x="540.0" y="88" font-size="12.5" fill="#cf222e">stage 07 writes pre_zombie back onto the stage-04 record — not a dependency</text>
<rect x="28" y="120" width="104" height="40" rx="3" fill="#ffffff" stroke="#24292f" stroke-width="1.2"/>
<text x="36" y="135" font-size="12.5" font-weight="bold" fill="#8c959f">01</text>
<text x="80.0" y="150" font-size="14" fill="#24292f" text-anchor="middle">Sensor Grid</text>
<rect x="328" y="120" width="104" height="40" rx="3" fill="#ffffff" stroke="#24292f" stroke-width="1.2"/>
<text x="336" y="135" font-size="12.5" font-weight="bold" fill="#8c959f">02</text>
<text x="380.0" y="150" font-size="14" fill="#24292f" text-anchor="middle">Baseline</text>
<rect x="178" y="120" width="104" height="40" rx="3" fill="#ffffff" stroke="#24292f" stroke-width="1.2"/>
<text x="186" y="135" font-size="12.5" font-weight="bold" fill="#8c959f">03</text>
<text x="230.0" y="150" font-size="14" fill="#24292f" text-anchor="middle">Correlation</text>
<rect x="478" y="120" width="104" height="40" rx="3" fill="#ffffff" stroke="#24292f" stroke-width="1.2"/>
<text x="486" y="135" font-size="12.5" font-weight="bold" fill="#8c959f">04</text>
<text x="530.0" y="150" font-size="14" fill="#24292f" text-anchor="middle">Classification</text>
<rect x="628" y="120" width="104" height="40" rx="3" fill="#ffffff" stroke="#24292f" stroke-width="1.2"/>
<text x="636" y="135" font-size="12.5" font-weight="bold" fill="#8c959f">05</text>
<text x="680.0" y="150" font-size="14" fill="#24292f" text-anchor="middle">Behaviour</text>
<rect x="778" y="120" width="104" height="40" rx="3" fill="#ffffff" stroke="#24292f" stroke-width="1.2"/>
<text x="786" y="135" font-size="12.5" font-weight="bold" fill="#8c959f">06</text>
<text x="830.0" y="150" font-size="14" fill="#24292f" text-anchor="middle">CDRI</text>
<rect x="628" y="190" width="104" height="40" rx="3" fill="#ffffff" stroke="#24292f" stroke-width="1.2"/>
<text x="636" y="205" font-size="12.5" font-weight="bold" fill="#8c959f">07</text>
<text x="680.0" y="220" font-size="14" fill="#24292f" text-anchor="middle">Forecast</text>
<rect x="928" y="120" width="104" height="40" rx="3" fill="#ffffff" stroke="#24292f" stroke-width="1.2"/>
<text x="936" y="135" font-size="12.5" font-weight="bold" fill="#8c959f">08</text>
<text x="980.0" y="150" font-size="14" fill="#24292f" text-anchor="middle">Findings</text>
<rect x="328" y="190" width="104" height="40" rx="3" fill="#ffffff" stroke="#24292f" stroke-width="1.2"/>
<text x="336" y="205" font-size="12.5" font-weight="bold" fill="#8c959f">09</text>
<text x="380.0" y="220" font-size="14" fill="#24292f" text-anchor="middle">Blast Radius</text>
<rect x="1078" y="120" width="104" height="40" rx="3" fill="#ffffff" stroke="#24292f" stroke-width="1.2"/>
<text x="1086" y="135" font-size="12.5" font-weight="bold" fill="#8c959f">10</text>
<text x="1130.0" y="150" font-size="14" fill="#24292f" text-anchor="middle">Remediation</text>
<rect x="628" y="260" width="104" height="40" rx="3" fill="#ffffff" stroke="#24292f" stroke-width="1.2"/>
<text x="636" y="275" font-size="12.5" font-weight="bold" fill="#8c959f">11</text>
<text x="680.0" y="290" font-size="14" fill="#24292f" text-anchor="middle">Decommission</text>
<rect x="778" y="190" width="104" height="40" rx="3" fill="#ffffff" stroke="#24292f" stroke-width="1.2"/>
<text x="786" y="205" font-size="12.5" font-weight="bold" fill="#8c959f">12</text>
<text x="830.0" y="220" font-size="14" fill="#24292f" text-anchor="middle">Threat</text>
<rect x="1228" y="120" width="104" height="40" rx="3" fill="#ffffff" stroke="#24292f" stroke-width="1.2"/>
<text x="1236" y="135" font-size="12.5" font-weight="bold" fill="#8c959f">13</text>
<text x="1280.0" y="150" font-size="14" fill="#24292f" text-anchor="middle">Zero-Trust</text>
<rect x="928" y="190" width="104" height="40" rx="3" fill="#ffffff" stroke="#24292f" stroke-width="1.2"/>
<text x="936" y="205" font-size="12.5" font-weight="bold" fill="#8c959f">14</text>
<text x="980.0" y="220" font-size="14" fill="#24292f" text-anchor="middle">Operations</text>
<text x="28" y="420" font-size="14" fill="#57606a">Edges spanning more than one column drop into the lanes below and rise into their target, so no arrow crosses a box it has nothing to do with.</text>
<text x="28" y="438" font-size="14" fill="#57606a">Two orderings correct the specification this was built from. 03 precedes 02 because the daily rollup aggregates by an endpoint identity that correlation produces.</text>
<text x="28" y="454" font-size="14" fill="#57606a">05 precedes 06 because the CDRI formula consumes a behavioural anomaly term; the reverse would have a stage read an input from its own future.</text>
</svg>