<svg xmlns="http://www.w3.org/2000/svg" viewBox="0 0 520 668" width="520" height="668" font-family="Helvetica, Arial, sans-serif">
<rect width="520" height="668" fill="#ffffff"/>
<defs><marker id="h" viewBox="0 0 10 10" refX="9.2" refY="5" markerWidth="5.4" markerHeight="5.4" orient="auto-start-reverse"><path d="M0 0 L10 5 L0 10 z" fill="#57606a"/></marker><marker id="hr" viewBox="0 0 10 10" refX="9.2" refY="5" markerWidth="5.4" markerHeight="5.4" orient="auto-start-reverse"><path d="M0 0 L10 5 L0 10 z" fill="#cf222e"/></marker></defs>
<text x="26" y="30" font-size="13" font-weight="bold" fill="#24292f" letter-spacing="0.6">THE 14-STAGE PIPELINE — the dependency graph, from STAGE_DEPS</text>
<text x="26" y="50" font-size="10.5" fill="#57606a">Top to bottom is dependency depth; an arrow points from a stage to one that needs it.</text>
<text x="26" y="64" font-size="10.5" fill="#57606a">Only the 16 edges that constrain ordering are drawn. Six of the 22 declared are implied</text>
<text x="26" y="78" font-size="10.5" fill="#57606a">by a longer path — 10 needs 6, but 6 → 8 → 10 already says so — and are left out.</text>
<path d="M260,134 V152" fill="none" stroke="#57606a" stroke-width="1.3" marker-end="url(#h)"/>
<path d="M260,192 V210" fill="none" stroke="#57606a" stroke-width="1.3" marker-end="url(#h)"/>
<path d="M204,172 H110 V210" fill="none" stroke="#57606a" stroke-width="1.3" marker-end="url(#h)"/>
<path d="M260,250 V268" fill="none" stroke="#57606a" stroke-width="1.3" marker-end="url(#h)"/>
<path d="M260,308 V326" fill="none" stroke="#57606a" stroke-width="1.3" marker-end="url(#h)"/>
<path d="M316,288 H410 V326" fill="none" stroke="#57606a" stroke-width="1.3" marker-end="url(#h)"/>
<path d="M204,288 H136 V326" fill="none" stroke="#57606a" stroke-width="1.3" marker-end="url(#h)"/>
<path d="M110,250 V326" fill="none" stroke="#57606a" stroke-width="1.3" marker-end="url(#h)"/>
<path d="M260,366 V384" fill="none" stroke="#57606a" stroke-width="1.3" marker-end="url(#h)"/>
<path d="M110,366 V384" fill="none" stroke="#57606a" stroke-width="1.3" marker-end="url(#h)"/>
<path d="M260,424 V442" fill="none" stroke="#57606a" stroke-width="1.3" marker-end="url(#h)"/>
<path d="M410,366 V462 H316" fill="none" stroke="#57606a" stroke-width="1.3" marker-end="url(#h)"/>
<path d="M54,230 H28 V491 H230 V482" fill="none" stroke="#57606a" stroke-width="1.3" marker-end="url(#h)"/>
<path d="M230,424 V433 H110 V442" fill="none" stroke="#57606a" stroke-width="1.3" marker-end="url(#h)"/>
<path d="M260,482 V500" fill="none" stroke="#57606a" stroke-width="1.3" marker-end="url(#h)"/>
<path d="M260,540 V558" fill="none" stroke="#57606a" stroke-width="1.3" marker-end="url(#h)"/>
<path d="M466,346 H490 V276 H316" fill="none" stroke="#cf222e" stroke-width="1.2" stroke-dasharray="4 2.5" marker-end="url(#hr)"/>
<text x="486" y="236" font-size="9.5" fill="#cf222e" text-anchor="end">07 writes pre_zombie</text>
<text x="486" y="248" font-size="9.5" fill="#cf222e" text-anchor="end">onto the 04 record —</text>
<text x="486" y="260" font-size="9.5" fill="#cf222e" text-anchor="end">not a dependency</text>
<rect x="204" y="94" width="112" height="40" rx="3" fill="#ffffff" stroke="#24292f" stroke-width="1.2"/>
<text x="213" y="109" font-size="10" fill="#8c959f" font-weight="bold" letter-spacing="0.6">01</text>
<text x="260" y="125" font-size="12.5" fill="#24292f" text-anchor="middle">Sensor Grid</text>
<rect x="204" y="210" width="112" height="40" rx="3" fill="#ffffff" stroke="#24292f" stroke-width="1.2"/>
<text x="213" y="225" font-size="10" fill="#8c959f" font-weight="bold" letter-spacing="0.6">02</text>
<text x="260" y="241" font-size="12.5" fill="#24292f" text-anchor="middle">Baseline</text>
<rect x="204" y="152" width="112" height="40" rx="3" fill="#ffffff" stroke="#24292f" stroke-width="1.2"/>
<text x="213" y="167" font-size="10" fill="#8c959f" font-weight="bold" letter-spacing="0.6">03</text>
<text x="260" y="183" font-size="12.5" fill="#24292f" text-anchor="middle">Correlation</text>
<rect x="204" y="268" width="112" height="40" rx="3" fill="#ffffff" stroke="#24292f" stroke-width="1.2"/>
<text x="213" y="283" font-size="10" fill="#8c959f" font-weight="bold" letter-spacing="0.6">04</text>
<text x="260" y="299" font-size="12.5" fill="#24292f" text-anchor="middle">Classification</text>
<rect x="204" y="326" width="112" height="40" rx="3" fill="#ffffff" stroke="#24292f" stroke-width="1.2"/>
<text x="213" y="341" font-size="10" fill="#8c959f" font-weight="bold" letter-spacing="0.6">05</text>
<text x="260" y="357" font-size="12.5" fill="#24292f" text-anchor="middle">Behaviour</text>
<rect x="204" y="384" width="112" height="40" rx="3" fill="#ffffff" stroke="#24292f" stroke-width="1.2"/>
<text x="213" y="399" font-size="10" fill="#8c959f" font-weight="bold" letter-spacing="0.6">06</text>
<text x="260" y="415" font-size="12.5" fill="#24292f" text-anchor="middle">CDRI</text>
<rect x="354" y="326" width="112" height="40" rx="3" fill="#ffffff" stroke="#24292f" stroke-width="1.2"/>
<text x="363" y="341" font-size="10" fill="#8c959f" font-weight="bold" letter-spacing="0.6">07</text>
<text x="410" y="357" font-size="12.5" fill="#24292f" text-anchor="middle">Forecast</text>
<rect x="204" y="442" width="112" height="40" rx="3" fill="#ffffff" stroke="#24292f" stroke-width="1.2"/>
<text x="213" y="457" font-size="10" fill="#8c959f" font-weight="bold" letter-spacing="0.6">08</text>
<text x="260" y="473" font-size="12.5" fill="#24292f" text-anchor="middle">Findings</text>
<rect x="54" y="210" width="112" height="40" rx="3" fill="#ffffff" stroke="#24292f" stroke-width="1.2"/>
<text x="63" y="225" font-size="10" fill="#8c959f" font-weight="bold" letter-spacing="0.6">09</text>
<text x="110" y="241" font-size="12.5" fill="#24292f" text-anchor="middle">Blast Radius</text>
<rect x="204" y="500" width="112" height="40" rx="3" fill="#ffffff" stroke="#24292f" stroke-width="1.2"/>
<text x="213" y="515" font-size="10" fill="#8c959f" font-weight="bold" letter-spacing="0.6">10</text>
<text x="260" y="531" font-size="12.5" fill="#24292f" text-anchor="middle">Remediation</text>
<rect x="54" y="326" width="112" height="40" rx="3" fill="#ffffff" stroke="#24292f" stroke-width="1.2"/>
<text x="63" y="341" font-size="10" fill="#8c959f" font-weight="bold" letter-spacing="0.6">11</text>
<text x="110" y="357" font-size="12.5" fill="#24292f" text-anchor="middle">Decommission</text>
<rect x="54" y="384" width="112" height="40" rx="3" fill="#ffffff" stroke="#24292f" stroke-width="1.2"/>
<text x="63" y="399" font-size="10" fill="#8c959f" font-weight="bold" letter-spacing="0.6">12</text>
<text x="110" y="415" font-size="12.5" fill="#24292f" text-anchor="middle">Threat</text>
<rect x="204" y="558" width="112" height="40" rx="3" fill="#ffffff" stroke="#24292f" stroke-width="1.2"/>
<text x="213" y="573" font-size="10" fill="#8c959f" font-weight="bold" letter-spacing="0.6">13</text>
<text x="260" y="589" font-size="12.5" fill="#24292f" text-anchor="middle">Zero-Trust</text>
<rect x="54" y="442" width="112" height="40" rx="3" fill="#ffffff" stroke="#24292f" stroke-width="1.2"/>
<text x="63" y="457" font-size="10" fill="#8c959f" font-weight="bold" letter-spacing="0.6">14</text>
<text x="110" y="473" font-size="12.5" fill="#24292f" text-anchor="middle">Operations</text>
<text x="26" y="628" font-size="10" fill="#57606a">Execution order is a topological sort tie-broken by stage number, so a run is reproducible.</text>
<text x="26" y="642" font-size="10" fill="#57606a">A stage that raises is recorded and skipped with its dependants; the cycle reports partial.</text>
<text x="26" y="656" font-size="10" fill="#57606a">03 precedes 02 and 05 precedes 06, correcting the specification this was built from.</text>
</svg>
